<svg width="38" height="38" viewBox="0 0 38 38" fill="none" xmlns="http://www.w3.org/2000/svg">
<path d="M6.83998 3.04001C4.74238 3.04001 3.03998 4.74241 3.03998 6.84001V31.16C3.03998 33.2576 4.74238 34.96 6.83998 34.96H31.16C33.2576 34.96 34.96 33.2576 34.96 31.16V6.84001C34.96 4.74241 33.2576 3.04001 31.16 3.04001H6.83998ZM9.11998 13.68H14.2351C14.7899 13.68 17.7917 13.6422 17.7917 16.3934C17.7917 17.8526 16.7958 18.3462 16.3474 18.5666C17.0162 18.7794 18.24 19.3952 18.24 21.28C18.24 24.1908 14.9032 24.32 14.4548 24.32H9.11998V13.68ZM22.04 13.68H27.36V15.2H22.04V13.68ZM11.4 15.5266V18.0203H13.8477C14.1821 18.0203 15.2905 17.8372 15.2905 16.72C15.2905 15.6028 13.8469 15.5266 13.6265 15.5266H11.4ZM24.8751 15.96C27.8391 15.96 28.6441 18.2702 28.7657 18.8174C28.8797 19.3722 28.88 19.8588 28.88 20.52H22.8757C22.8757 21.1812 23.2261 22.6709 24.9969 22.6709C25.4681 22.6709 25.8168 22.5573 26.174 22.3369C26.5236 22.1165 26.6463 21.9027 26.7603 21.6823H28.7583C28.4087 22.5563 27.9376 23.2187 27.2308 23.6595C26.524 24.1003 25.7032 24.32 24.7608 24.32C24.168 24.32 23.5828 24.2064 22.99 23.986C22.5188 23.7656 22.0482 23.4385 21.6986 23.1117C21.349 22.7773 21.1133 22.3363 20.8777 21.7891C20.6421 21.3483 20.52 20.6872 20.52 20.14C20.52 19.5928 20.7407 15.96 24.8751 15.96ZM24.8751 17.5023C23.1575 17.5023 22.8757 19.1519 22.8757 19.2583H26.646C26.5244 18.7111 26.0303 17.5023 24.8751 17.5023ZM11.4 19.5403V22.4734H13.9472C14.1668 22.4734 15.7165 22.4055 15.7165 21.0603C15.7165 19.7227 14.4989 19.5403 13.9472 19.5403H11.4Z" fill="white"/>
</svg>
